G04 #@! TF.FileFunction,Copper,L2,Bot,Signal*
%FSLAX46Y46*%
G04 Gerber Fmt 4.6, Leading zero omitted, Abs format (unit mm)*
G04 Created by KiCad (PCBNEW 4.0.6) date 09/23/17 02:02:46*
%MOMM*%
%LPD*%
G01*
G04 APERTURE LIST*
%ADD10C,0.100000*%
%ADD11C,1.600000*%
%ADD12R,1.200000X1.200000*%
%ADD13C,1.200000*%
%ADD14R,1.800000X1.800000*%
%ADD15O,1.800000X1.800000*%
%ADD16R,2.500000X2.500000*%
%ADD17C,2.500000*%
%ADD18C,3.600000*%
%ADD19O,1.500000X0.900000*%
%ADD20R,1.500000X0.900000*%
%ADD21O,1.600000X1.600000*%
%ADD22C,2.400000*%
%ADD23O,2.400000X2.400000*%
%ADD24C,1.440000*%
%ADD25R,2.400000X1.600000*%
%ADD26O,2.400000X1.600000*%
%ADD27C,5.999480*%
%ADD28C,0.250000*%
%ADD29C,1.200000*%
%ADD30C,1.000000*%
G04 APERTURE END LIST*
D10*
D11*
X86512400Y-77444600D03*
X84012400Y-77444600D03*
D12*
X92964000Y-60426600D03*
D13*
X92964000Y-61926600D03*
D11*
X139827000Y-102209600D03*
X142327000Y-102209600D03*
D12*
X164084000Y-62763400D03*
D13*
X164084000Y-64263400D03*
D11*
X140614400Y-90449400D03*
X138114400Y-90449400D03*
D12*
X172212000Y-62738000D03*
D13*
X172212000Y-64238000D03*
D14*
X90881200Y-77673200D03*
D15*
X90881200Y-67513200D03*
D14*
X132613400Y-61696600D03*
D15*
X132613400Y-71856600D03*
D16*
X82575400Y-58648600D03*
D17*
X82575400Y-63648600D03*
D16*
X182524400Y-67995800D03*
D17*
X182524400Y-62995800D03*
D18*
X141554200Y-62687200D03*
X155054200Y-62687200D03*
D19*
X103530400Y-67919600D03*
X103530400Y-66649600D03*
D20*
X103530400Y-69189600D03*
D14*
X107188000Y-55245000D03*
D15*
X109728000Y-55245000D03*
X112268000Y-55245000D03*
D19*
X111785400Y-67919600D03*
X111785400Y-66649600D03*
D20*
X111785400Y-69189600D03*
D11*
X110007400Y-97383600D03*
D21*
X110007400Y-89763600D03*
D11*
X135356600Y-95885000D03*
D21*
X135356600Y-103505000D03*
D11*
X139801600Y-95631000D03*
D21*
X147421600Y-95631000D03*
D11*
X150977600Y-102743000D03*
D21*
X150977600Y-95123000D03*
D11*
X160756600Y-76758800D03*
D21*
X160756600Y-84378800D03*
D11*
X172339000Y-70307200D03*
D21*
X164719000Y-70307200D03*
D11*
X113080800Y-74015600D03*
D21*
X120700800Y-74015600D03*
D11*
X143840200Y-84963000D03*
D21*
X136220200Y-84963000D03*
D11*
X107594400Y-73253600D03*
D21*
X107594400Y-80873600D03*
D11*
X167386000Y-82931000D03*
D21*
X167386000Y-90551000D03*
D22*
X182651400Y-77444600D03*
D23*
X167411400Y-77444600D03*
D24*
X110540800Y-104724200D03*
X113080800Y-104724200D03*
X115620800Y-104724200D03*
X128371600Y-104825800D03*
X125831600Y-104825800D03*
X123291600Y-104825800D03*
D25*
X130657600Y-98425000D03*
D26*
X123037600Y-80645000D03*
X130657600Y-95885000D03*
X123037600Y-83185000D03*
X130657600Y-93345000D03*
X123037600Y-85725000D03*
X130657600Y-90805000D03*
X123037600Y-88265000D03*
X130657600Y-88265000D03*
X123037600Y-90805000D03*
X130657600Y-85725000D03*
X123037600Y-93345000D03*
X130657600Y-83185000D03*
X123037600Y-95885000D03*
X130657600Y-80645000D03*
X123037600Y-98425000D03*
D27*
X122250200Y-50901600D03*
X96850200Y-50901600D03*
D28*
X86512400Y-77444600D02*
X90652600Y-77444600D01*
X90652600Y-77444600D02*
X90881200Y-77673200D01*
X90881200Y-67513200D02*
X91516200Y-67513200D01*
X91516200Y-67513200D02*
X95402400Y-63627000D01*
X95402400Y-63627000D02*
X95402400Y-60426600D01*
D29*
X92964000Y-60426600D02*
X95402400Y-60426600D01*
X95402400Y-60426600D02*
X97104200Y-60426600D01*
X109728000Y-53086000D02*
X109728000Y-55245000D01*
X108839000Y-52197000D02*
X109728000Y-53086000D01*
X105333800Y-52197000D02*
X108839000Y-52197000D01*
X97104200Y-60426600D02*
X105333800Y-52197000D01*
X92964000Y-60426600D02*
X84353400Y-60426600D01*
X84353400Y-60426600D02*
X82575400Y-58648600D01*
D28*
X90881200Y-67513200D02*
X90881200Y-67335400D01*
X83489800Y-59740800D02*
X82575400Y-58648600D01*
X107594400Y-80873600D02*
X103555800Y-80873600D01*
X93573600Y-67513200D02*
X90881200Y-67513200D01*
X94970600Y-68910200D02*
X93573600Y-67513200D01*
X94970600Y-72288400D02*
X94970600Y-68910200D01*
X103555800Y-80873600D02*
X94970600Y-72288400D01*
X123037600Y-88265000D02*
X114985800Y-88265000D01*
X114985800Y-88265000D02*
X107594400Y-80873600D01*
X139827000Y-102209600D02*
X139827000Y-95656400D01*
X139827000Y-95656400D02*
X139801600Y-95631000D01*
X130657600Y-93345000D02*
X137515600Y-93345000D01*
X137515600Y-93345000D02*
X139801600Y-95631000D01*
X150977600Y-102743000D02*
X142860400Y-102743000D01*
X142860400Y-102743000D02*
X142327000Y-102209600D01*
D29*
X172212000Y-62738000D02*
X182266600Y-62738000D01*
X182266600Y-62738000D02*
X182524400Y-62995800D01*
X164084000Y-62763400D02*
X172186600Y-62763400D01*
X172186600Y-62763400D02*
X172212000Y-62738000D01*
X155054200Y-62687200D02*
X164007800Y-62687200D01*
X164007800Y-62687200D02*
X164084000Y-62763400D01*
D30*
X182266600Y-62738000D02*
X182524400Y-62995800D01*
X172186600Y-62763400D02*
X172212000Y-62738000D01*
X164007800Y-62687200D02*
X164084000Y-62763400D01*
D28*
X172339000Y-70307200D02*
X174879000Y-70307200D01*
X179929800Y-62995800D02*
X182524400Y-62995800D01*
X179425600Y-63500000D02*
X179929800Y-62995800D01*
X179425600Y-65760600D02*
X179425600Y-63500000D01*
X174879000Y-70307200D02*
X179425600Y-65760600D01*
X130657600Y-88265000D02*
X134747000Y-88265000D01*
X136931400Y-90449400D02*
X138114400Y-90449400D01*
X134747000Y-88265000D02*
X136931400Y-90449400D01*
D29*
X132613400Y-61696600D02*
X140563600Y-61696600D01*
X140563600Y-61696600D02*
X141554200Y-62687200D01*
X112268000Y-55245000D02*
X112369600Y-55245000D01*
X112369600Y-55245000D02*
X118821200Y-61696600D01*
X118821200Y-61696600D02*
X132613400Y-61696600D01*
D30*
X140563600Y-61696600D02*
X141554200Y-62687200D01*
X112268000Y-55245000D02*
X112268000Y-55778400D01*
D29*
X182524400Y-67995800D02*
X182524400Y-77317600D01*
X182524400Y-77317600D02*
X182651400Y-77444600D01*
D28*
X167386000Y-82931000D02*
X179247800Y-82931000D01*
X182651400Y-79527400D02*
X182651400Y-77444600D01*
X179247800Y-82931000D02*
X182651400Y-79527400D01*
D30*
X182524400Y-77317600D02*
X182651400Y-77444600D01*
D28*
X103530400Y-67919600D02*
X111785400Y-67919600D01*
X107594400Y-73253600D02*
X112318800Y-73253600D01*
X112318800Y-73253600D02*
X113080800Y-74015600D01*
X107188000Y-55245000D02*
X107188000Y-61264800D01*
X115214400Y-69189600D02*
X111785400Y-69189600D01*
X116814600Y-67589400D02*
X115214400Y-69189600D01*
X116814600Y-64109600D02*
X116814600Y-67589400D01*
X115722400Y-63017400D02*
X116814600Y-64109600D01*
X108940600Y-63017400D02*
X115722400Y-63017400D01*
X107188000Y-61264800D02*
X108940600Y-63017400D01*
X103530400Y-69189600D02*
X111785400Y-69189600D01*
X113080800Y-104724200D02*
X110540800Y-104724200D01*
X110007400Y-97383600D02*
X115163600Y-97383600D01*
X116662200Y-95885000D02*
X123037600Y-95885000D01*
X115163600Y-97383600D02*
X116662200Y-95885000D01*
X110540800Y-104724200D02*
X110540800Y-97917000D01*
X110540800Y-97917000D02*
X110007400Y-97383600D01*
X123037600Y-93345000D02*
X119253000Y-93345000D01*
X115671600Y-89763600D02*
X110007400Y-89763600D01*
X119253000Y-93345000D02*
X115671600Y-89763600D01*
X128371600Y-104825800D02*
X128371600Y-96520000D01*
X129006600Y-95885000D02*
X130657600Y-95885000D01*
X128371600Y-96520000D02*
X129006600Y-95885000D01*
X125831600Y-104825800D02*
X128371600Y-104825800D01*
X147421600Y-95631000D02*
X150469600Y-95631000D01*
X150469600Y-95631000D02*
X150977600Y-95123000D01*
X130657600Y-95885000D02*
X135356600Y-95885000D01*
X160756600Y-76758800D02*
X156032200Y-76758800D01*
X130657600Y-103759000D02*
X130657600Y-98425000D01*
X134924800Y-108026200D02*
X130657600Y-103759000D01*
X151307800Y-108026200D02*
X134924800Y-108026200D01*
X155448000Y-103886000D02*
X151307800Y-108026200D01*
X155448000Y-77343000D02*
X155448000Y-103886000D01*
X156032200Y-76758800D02*
X155448000Y-77343000D01*
X160756600Y-76758800D02*
X160756600Y-71932800D01*
X162382200Y-70307200D02*
X164719000Y-70307200D01*
X160756600Y-71932800D02*
X162382200Y-70307200D01*
X120700800Y-74015600D02*
X127609600Y-74015600D01*
X130657600Y-77063600D02*
X130657600Y-80645000D01*
X127609600Y-74015600D02*
X130657600Y-77063600D01*
X123037600Y-85725000D02*
X124028200Y-85725000D01*
X124028200Y-85725000D02*
X127177800Y-82575400D01*
X127177800Y-82575400D02*
X127177800Y-81711800D01*
X127177800Y-81711800D02*
X128244600Y-80645000D01*
X128244600Y-80645000D02*
X130657600Y-80645000D01*
X130657600Y-85725000D02*
X135458200Y-85725000D01*
X135458200Y-85725000D02*
X136220200Y-84963000D01*
M02*
