G04 #@! TF.FileFunction,Soldermask,Top*
%FSLAX46Y46*%
G04 Gerber Fmt 4.6, Leading zero omitted, Abs format (unit mm)*
G04 Created by KiCad (PCBNEW 4.0.6) date 09/23/17 02:02:46*
%MOMM*%
%LPD*%
G01*
G04 APERTURE LIST*
%ADD10C,0.100000*%
%ADD11C,2.000000*%
%ADD12R,1.600000X1.600000*%
%ADD13C,1.600000*%
%ADD14R,2.200000X2.200000*%
%ADD15O,2.200000X2.200000*%
%ADD16R,2.900000X2.900000*%
%ADD17C,2.900000*%
%ADD18C,4.000000*%
%ADD19O,1.900000X1.300000*%
%ADD20R,1.900000X1.300000*%
%ADD21O,2.000000X2.000000*%
%ADD22C,2.800000*%
%ADD23O,2.800000X2.800000*%
%ADD24C,1.840000*%
%ADD25R,2.800000X2.000000*%
%ADD26O,2.800000X2.000000*%
%ADD27C,6.399480*%
G04 APERTURE END LIST*
D10*
D11*
X86512400Y-77444600D03*
X84012400Y-77444600D03*
D12*
X92964000Y-60426600D03*
D13*
X92964000Y-61926600D03*
D11*
X139827000Y-102209600D03*
X142327000Y-102209600D03*
D12*
X164084000Y-62763400D03*
D13*
X164084000Y-64263400D03*
D11*
X140614400Y-90449400D03*
X138114400Y-90449400D03*
D12*
X172212000Y-62738000D03*
D13*
X172212000Y-64238000D03*
D14*
X90881200Y-77673200D03*
D15*
X90881200Y-67513200D03*
D14*
X132613400Y-61696600D03*
D15*
X132613400Y-71856600D03*
D16*
X82575400Y-58648600D03*
D17*
X82575400Y-63648600D03*
D16*
X182524400Y-67995800D03*
D17*
X182524400Y-62995800D03*
D18*
X141554200Y-62687200D03*
X155054200Y-62687200D03*
D19*
X103530400Y-67919600D03*
X103530400Y-66649600D03*
D20*
X103530400Y-69189600D03*
D14*
X107188000Y-55245000D03*
D15*
X109728000Y-55245000D03*
X112268000Y-55245000D03*
D19*
X111785400Y-67919600D03*
X111785400Y-66649600D03*
D20*
X111785400Y-69189600D03*
D11*
X110007400Y-97383600D03*
D21*
X110007400Y-89763600D03*
D11*
X135356600Y-95885000D03*
D21*
X135356600Y-103505000D03*
D11*
X139801600Y-95631000D03*
D21*
X147421600Y-95631000D03*
D11*
X150977600Y-102743000D03*
D21*
X150977600Y-95123000D03*
D11*
X160756600Y-76758800D03*
D21*
X160756600Y-84378800D03*
D11*
X172339000Y-70307200D03*
D21*
X164719000Y-70307200D03*
D11*
X113080800Y-74015600D03*
D21*
X120700800Y-74015600D03*
D11*
X143840200Y-84963000D03*
D21*
X136220200Y-84963000D03*
D11*
X107594400Y-73253600D03*
D21*
X107594400Y-80873600D03*
D11*
X167386000Y-82931000D03*
D21*
X167386000Y-90551000D03*
D22*
X182651400Y-77444600D03*
D23*
X167411400Y-77444600D03*
D24*
X110540800Y-104724200D03*
X113080800Y-104724200D03*
X115620800Y-104724200D03*
X128371600Y-104825800D03*
X125831600Y-104825800D03*
X123291600Y-104825800D03*
D25*
X130657600Y-98425000D03*
D26*
X123037600Y-80645000D03*
X130657600Y-95885000D03*
X123037600Y-83185000D03*
X130657600Y-93345000D03*
X123037600Y-85725000D03*
X130657600Y-90805000D03*
X123037600Y-88265000D03*
X130657600Y-88265000D03*
X123037600Y-90805000D03*
X130657600Y-85725000D03*
X123037600Y-93345000D03*
X130657600Y-83185000D03*
X123037600Y-95885000D03*
X130657600Y-80645000D03*
X123037600Y-98425000D03*
D27*
X122250200Y-50901600D03*
X96850200Y-50901600D03*
M02*
