M48
;DRILL file {KiCad 4.0.6} date 09/23/17 02:02:49
;FORMAT={-:-/ absolute / metric / decimal}
FMAT,2
METRIC,TZ
T1C0.600
T2C0.800
T3C0.900
T4C1.000
T5C1.200
T6C1.300
T7C1.800
T8C3.500
%
G90
G05
M71
T1
X92.964Y-60.427
X92.964Y-61.927
X103.53Y-66.65
X103.53Y-67.92
X103.53Y-69.19
X111.785Y-66.65
X111.785Y-67.92
X111.785Y-69.19
X164.084Y-62.763
X164.084Y-64.263
X172.212Y-62.738
X172.212Y-64.238
T2
X84.012Y-77.445
X86.512Y-77.445
X107.594Y-73.254
X107.594Y-80.874
X110.007Y-89.764
X110.007Y-97.384
X110.541Y-104.724
X113.081Y-74.016
X113.081Y-104.724
X115.621Y-104.724
X120.701Y-74.016
X123.038Y-80.645
X123.038Y-83.185
X123.038Y-85.725
X123.038Y-88.265
X123.038Y-90.805
X123.038Y-93.345
X123.038Y-95.885
X123.038Y-98.425
X123.292Y-104.826
X125.832Y-104.826
X128.372Y-104.826
X130.658Y-80.645
X130.658Y-83.185
X130.658Y-85.725
X130.658Y-88.265
X130.658Y-90.805
X130.658Y-93.345
X130.658Y-95.885
X130.658Y-98.425
X135.357Y-95.885
X135.357Y-103.505
X136.22Y-84.963
X138.114Y-90.449
X139.802Y-95.631
X139.827Y-102.21
X140.614Y-90.449
X142.327Y-102.21
X143.84Y-84.963
X147.422Y-95.631
X150.978Y-95.123
X150.978Y-102.743
X160.757Y-76.759
X160.757Y-84.379
X164.719Y-70.307
X167.386Y-82.931
X167.386Y-90.551
X172.339Y-70.307
T3
X90.881Y-67.513
X90.881Y-77.673
X132.613Y-61.697
X132.613Y-71.857
T4
X107.188Y-55.245
X109.728Y-55.245
X112.268Y-55.245
T5
X167.411Y-77.445
X182.651Y-77.445
T6
X82.575Y-58.649
X82.575Y-63.649
X182.524Y-62.996
X182.524Y-67.996
T7
X141.554Y-62.687
X155.054Y-62.687
T8
X96.85Y-50.902
X122.25Y-50.902
T0
M30
